# xmcd
#
# Track frame offsets:
#	150
#	13054
#	24628
#	35366
#	49279
#	62622
#	76556
#	92644
#	103520
#	116211
#	129565
#	144270
#	157110
#	171080
#	183596
#
# Disc length: 2610 seconds
#
# Revision: 1
# Processed by: cddbd v1.5.2PL0 Copyright (c) Steve Scherf et al.
# Submitted via: audiograbber 1.83.01
#
DISCID=c20a300f
DTITLE=B.B.King - Beale Street Blues Boys 02
DYEAR=1952
DGENRE=Blues
TTITLE0=B.B.King - Someday, Somewhere (King - Taub)
TTITLE1=B.B.King - You Didn't Want Me (King - Taub)
TTITLE2=B.B.King - Fine Looking Woman (King)
TTITLE3=B.B.King - You Know I Love You (King - Taub)
TTITLE4=B.B.King - Story From My Heart and Soul (King - Taub)
TTITLE5=B.B.King - She Don't Move Me No More (King - Taub)
TTITLE6=B.B.King - My Own Fault, Darling (King - Taub)
TTITLE7=B.B.King - Gotta Find My Baby (Clayton)
TTITLE8=B.B.King - Boogie Woogie Woman (King - Taub)
TTITLE9=B.B.King - Woke Up This Morning (King - Taub)
TTITLE10=B.B.King - Don't Have to Cry (King - Josea)
TTITLE11=B.B.King - Please Love Me (King - Ling)
TTITLE12=B.B.King - Blind Love (King - Taub)
TTITLE13=B.B.King - Highway Bound (King)
TTITLE14=B.B.King - Please Hurry Home (King - Taub)
EXTD=
EXTT0=
EXTT1=
EXTT2=
EXTT3=
EXTT4=
EXTT5=
EXTT6=
EXTT7=
EXTT8=
EXTT9=
EXTT10=
EXTT11=
EXTT12=
EXTT13=
EXTT14=arr.by Ledeburgh\n
PLAYORDER=
